<svg width="20" height="20" viewBox="0 0 20 20" fill="none" xmlns="http://www.w3.org/2000/svg">
<path d="M13.9 1.35002C12.5 1.29025 11.1223 1.71592 10 2.55502C8.87771 1.71592 7.50002 1.29025 6.1 1.35002C2.2 1.35002 0.25 3.69002 0.25 7.20002C0.25 12.595 5.25 16.335 9.06 18.41C9.34826 18.5676 9.6715 18.6501 10 18.6501C10.3285 18.6501 10.6517 18.5676 10.94 18.41C14.775 16.335 19.75 12.595 19.75 7.20002C19.75 3.69002 17.8 1.35002 13.9 1.35002Z" fill="#FF52A1" stroke="#231F20" stroke-width="0.5" stroke-miterlimit="10"/>
<path d="M14.1799 3.35504C16.3699 3.12504 17.1349 4.35504 17.4499 5.23504" stroke="white" stroke-width="0.5" stroke-miterlimit="10" stroke-linecap="round"/>
</svg>
